1.9Hzhigh3min_grf.mot
version=1
nRows=25
nColumns 19
inDegrees=yes
endheader
time	1_ground_force_vx	1_ground_force_vy	1_ground_force_vz	1_ground_force_px	1_ground_force_py	1_ground_force_pz	1_ground_torque_x	1_ground_torque_y	1_ground_torque_z	2_ground_force_vx	2_ground_force_vy	2_ground_force_vz	2_ground_force_px	2_ground_force_py	2_ground_force_pz	2_ground_torque_x	2_ground_torque_y	2_ground_torque_z
            0.005000	            0.686435	            2.885563	           -0.264475	           -0.170127	            0.006257	           -0.410530	            0.291488	           -0.018043	            0.009619	            0.042033	            1.290546	           -0.370845	           -0.222096	            0.005626	           -0.682134	           -0.225028	           -0.141663	           -0.264313
            0.005500	            0.640397	            2.705682	           -0.356846	           -0.170127	            0.006257	           -0.410530	            0.276684	            0.018984	           -0.010932	            0.469684	           -0.365433	           -0.330010	           -0.222096	            0.005626	           -0.682134	           -0.168905	           -0.056990	           -0.094381
            0.006000	            0.320422	            3.244648	            0.058973	           -0.170127	            0.006257	           -0.410530	            0.277656	           -0.193989	            0.030845	            0.182583	            1.291054	           -0.370905	           -0.222096	            0.005626	           -0.682134	           -0.131641	            0.028219	           -0.094094
            0.006500	            0.458278	            2.703484	            0.148024	           -0.170127	            0.006257	           -0.410530	            0.255528	           -0.221979	            0.111856	            0.279023	            0.554129	           -0.185861	           -0.222096	            0.005626	           -0.682134	           -0.206926	            0.056642	           -0.188212
            0.007000	            0.458799	            2.342166	            0.329902	           -0.170127	            0.006257	           -0.410530	            0.247662	           -0.239977	           -0.000978	           -0.186714	           -0.184992	            0.046351	           -0.222096	            0.005626	           -0.682134	           -0.206517	           -0.056790	           -0.188617
            0.007500	            0.550078	            2.703305	            0.193653	           -0.170127	            0.006257	           -0.410530	            0.253617	           -0.157313	            0.134845	           -0.189414	            0.551936	           -0.044877	           -0.222096	            0.005626	           -0.682134	           -0.206364	           -0.094735	           -0.151051
            0.008000	            0.640658	            2.525023	           -0.265907	           -0.170127	            0.006257	           -0.410530	            0.291914	           -0.083090	            0.082590	            0.141797	           -0.367120	           -0.189086	           -0.222096	            0.005626	           -0.682134	           -0.206133	           -0.160837	           -0.170137
            0.008500	            0.732668	            3.245317	           -0.079619	           -0.170127	            0.006257	           -0.410530	            0.246181	           -0.046238	            0.124341	            0.228604	            1.476710	           -0.745693	           -0.222096	            0.005626	           -0.682134	           -0.206236	           -0.132479	           -0.170036
            0.009000	            0.595417	            2.343765	           -0.037286	           -0.170127	            0.006257	           -0.410530	            0.282198	           -0.064538	            0.061947	            0.046603	            0.002178	           -0.563157	           -0.222096	            0.005626	           -0.682134	           -0.281608	           -0.066648	           -0.150918
            0.009500	            0.411069	            2.705834	           -0.402133	           -0.170127	            0.006257	           -0.410530	            0.353827	           -0.147651	            0.015985	           -0.006146	            1.658674	           -0.369511	           -0.222096	            0.005626	           -0.682134	           -0.244292	           -0.000209	           -0.188398
            0.010000	            0.229485	            2.882919	            0.332790	           -0.170127	            0.006257	           -0.410530	            0.322520	           -0.249554	            0.045397	            0.322653	            1.474203	            0.052045	           -0.222096	            0.005626	           -0.682134	           -0.263162	            0.018763	           -0.226023
            0.010500	            0.366802	            3.423939	            0.288912	           -0.170127	            0.006257	           -0.410530	            0.249049	           -0.221776	            0.051543	            0.230221	            1.106070	           -0.090013	           -0.222096	            0.005626	           -0.682134	           -0.187800	           -0.037817	           -0.188557
            0.011000	            0.458913	            2.341969	            0.375758	           -0.170127	            0.006257	           -0.410530	            0.396093	           -0.110943	            0.093197	            0.324044	            1.105405	            0.191515	           -0.222096	            0.005626	           -0.682134	           -0.149896	           -0.132141	           -0.207761
            0.011500	            0.641113	            2.524237	           -0.082483	           -0.170127	            0.006257	           -0.410530	            0.302583	           -0.073355	           -0.030184	            0.132554	            2.210455	           -0.039103	           -0.222096	            0.005626	           -0.682134	           -0.149675	           -0.188992	           -0.170262
            0.012000	            0.594992	            3.425753	           -0.124361	           -0.170127	            0.006257	           -0.410530	            0.191272	           -0.054831	           -0.050613	            0.184515	            0.739111	           -0.513661	           -0.222096	            0.005626	           -0.682134	           -0.187348	           -0.160769	           -0.170145
            0.012500	            0.412075	            3.424931	            0.059518	           -0.170127	            0.006257	           -0.410530	            0.202160	           -0.073313	           -0.077336	           -0.003611	            0.923085	           -0.653708	           -0.222096	            0.005626	           -0.682134	           -0.262788	           -0.076033	           -0.150960
            0.013000	            0.824045	            3.065659	           -0.218187	           -0.170127	            0.006257	           -0.410530	            0.233241	           -0.193775	            0.052464	            0.136254	            1.107908	           -0.700039	           -0.222096	            0.005626	           -0.682134	           -0.225695	            0.056440	           -0.150503
            0.013500	            0.365957	            3.064981	           -0.079482	           -0.170127	            0.006257	           -0.410530	            0.227008	           -0.239635	           -0.098851	            0.228624	            1.476543	           -0.698765	           -0.222096	            0.005626	           -0.682134	           -0.319332	           -0.019655	           -0.113033
            0.014000	            0.595268	            3.785694	            0.014753	           -0.170127	            0.006257	           -0.410530	            0.260614	           -0.194028	            0.080192	            0.512026	            0.922602	            0.003066	           -0.222096	            0.005626	           -0.682134	           -0.300469	           -0.047744	           -0.169693
            0.014500	            0.458326	            3.063819	            0.195426	           -0.170127	            0.006257	           -0.410530	            0.290536	           -0.101242	           -0.019313	            0.326785	            0.368142	            0.376599	           -0.222096	            0.005626	           -0.682134	           -0.224944	           -0.151519	           -0.151245
            0.015000	            0.595807	            2.703510	            0.147683	           -0.170127	            0.006257	           -0.410530	            0.236746	           -0.092512	            0.118321	            0.508723	            1.843177	            0.053280	           -0.222096	            0.005626	           -0.682134	           -0.262439	           -0.170628	           -0.132447
            0.015500	            0.824435	            3.425404	           -0.033218	           -0.170127	            0.006257	           -0.410530	            0.356526	           -0.082743	            0.033823	            0.135856	            1.289880	           -0.089317	           -0.222096	            0.005626	           -0.682134	           -0.243807	           -0.123431	           -0.094586
            0.016000	            0.594471	            3.787071	           -0.306238	           -0.170127	            0.006257	           -0.410530	            0.274283	           -0.092360	            0.080594	           -0.146799	            1.659003	           -0.604092	           -0.222096	            0.005626	           -0.682134	           -0.225466	           -0.000478	           -0.094155
            0.016500	            0.595025	            3.245487	           -0.125134	           -0.170127	            0.006257	           -0.410530	            0.360640	           -0.184690	            0.061205	            0.187756	           -0.180961	           -0.704658	           -0.222096	            0.005626	           -0.682134	           -0.225499	           -0.000209	           -0.169556
            0.017000	            0.458293	            3.244084	            0.196199	           -0.170127	            0.006257	           -0.410530	            0.271670	           -0.221410	           -0.019788	            0.276906	            1.107579	           -0.465458	           -0.222096	            0.005626	           -0.682134	           -0.263001	           -0.019250	           -0.169607
